<svg width="24" height="26" viewBox="0 0 24 26" fill="none" xmlns="http://www.w3.org/2000/svg">
<path d="M19.875 4.82715H4.125C3.71079 4.82715 3.375 5.16294 3.375 5.57715V21.3271C3.375 21.7413 3.71079 22.0771 4.125 22.0771H19.875C20.2892 22.0771 20.625 21.7413 20.625 21.3271V5.57715C20.625 5.16294 20.2892 4.82715 19.875 4.82715Z" stroke="white" stroke-linecap="round" stroke-linejoin="round"/>
<path d="M11.25 11.9521V17.9521" stroke="white" stroke-linecap="round" stroke-linejoin="round"/>
<path d="M8.25 11.9521V17.9521" stroke="white" stroke-linecap="round" stroke-linejoin="round"/>
<path d="M11.25 14.5771C11.25 13.8809 11.5266 13.2132 12.0188 12.721C12.5111 12.2287 13.1788 11.9521 13.875 11.9521C14.5712 11.9521 15.2389 12.2287 15.7312 12.721C16.2234 13.2132 16.5 13.8809 16.5 14.5771V17.9521" stroke="white" stroke-linecap="round" stroke-linejoin="round"/>
<path d="M8.25 9.70215C8.66421 9.70215 9 9.36637 9 8.95215C9 8.53794 8.66421 8.20215 8.25 8.20215C7.83579 8.20215 7.5 8.53794 7.5 8.95215C7.5 9.36637 7.83579 9.70215 8.25 9.70215Z" fill="white"/>
</svg>
