<svg width="24" height="26" viewBox="0 0 24 26" fill="none" xmlns="http://www.w3.org/2000/svg">
<path d="M12 17.2021C14.0711 17.2021 15.75 15.5232 15.75 13.4521C15.75 11.381 14.0711 9.70215 12 9.70215C9.92893 9.70215 8.25 11.381 8.25 13.4521C8.25 15.5232 9.92893 17.2021 12 17.2021Z" stroke="white" stroke-linecap="round" stroke-linejoin="round"/>
<path d="M16.125 4.82715H7.875C5.38972 4.82715 3.375 6.84187 3.375 9.32715V17.5771C3.375 20.0624 5.38972 22.0771 7.875 22.0771H16.125C18.6103 22.0771 20.625 20.0624 20.625 17.5771V9.32715C20.625 6.84187 18.6103 4.82715 16.125 4.82715Z" stroke="white" stroke-linecap="round" stroke-linejoin="round"/>
<path d="M17.5625 8.57715C17.5625 8.95685 17.2547 9.26465 16.875 9.26465C16.4953 9.26465 16.1875 8.95685 16.1875 8.57715C16.1875 8.19746 16.4953 7.88965 16.875 7.88965C17.2547 7.88965 17.5625 8.19746 17.5625 8.57715Z" fill="white" stroke="white" stroke-width="0.125"/>
</svg>
