<svg width="20" height="18" viewBox="0 0 20 18" fill="none" xmlns="http://www.w3.org/2000/svg">
<path d="M9.00049 4.70243C9.00059 3.84083 9.29729 3.00553 9.84079 2.33696C10.3843 1.66839 11.1414 1.20733 11.9848 1.03128C12.8282 0.855236 13.7066 0.974946 14.4721 1.37029C15.2376 1.76563 15.8437 2.41249 16.1885 3.20212L19.5005 3.20216L16.4759 6.22674C16.279 9.26894 14.9316 12.1221 12.7075 14.2069C10.4833 16.2918 7.54909 17.4521 4.50051 17.4521C1.50051 17.4521 0.750506 16.3271 0.750506 16.3271C0.750506 16.3271 3.75051 15.2021 5.25051 12.9521C5.25051 12.9521 -0.749494 9.95214 0.750506 1.70216C0.750506 1.70216 4.50051 5.45216 8.99919 6.20214L9.00049 4.70243Z" stroke="white" stroke-linecap="round" stroke-linejoin="round"/>
</svg>
